<?xml version="1.0" encoding="UTF-8" standalone="no"?>
<svg
   xmlns:dc="http://purl.org/dc/elements/1.1/"
   xmlns:cc="http://creativecommons.org/ns#"
   xmlns:rdf="http://www.w3.org/1999/02/22-rdf-syntax-ns#"
   xmlns:svg="http://www.w3.org/2000/svg"
   xmlns="http://www.w3.org/2000/svg"
   xmlns:xlink="http://www.w3.org/1999/xlink"
   xmlns:sodipodi="http://sodipodi.sourceforge.net/DTD/sodipodi-0.dtd"
   xmlns:inkscape="http://www.inkscape.org/namespaces/inkscape"
   width="256"
   height="256"
   id="svg2"
   version="1.1"
   inkscape:version="0.48.4 r9939"
   sodipodi:docname="Last.fm-icon.svg">
  <metadata
     id="metadata22">
    <rdf:RDF>
      <cc:Work
         rdf:about="">
        <dc:format>image/svg+xml</dc:format>
        <dc:type
           rdf:resource="http://purl.org/dc/dcmitype/StillImage" />
      </cc:Work>
    </rdf:RDF>
  </metadata>
  <sodipodi:namedview
     pagecolor="#ffffff"
     bordercolor="#666666"
     borderopacity="1"
     objecttolerance="10"
     gridtolerance="10"
     guidetolerance="10"
     inkscape:pageopacity="0"
     inkscape:pageshadow="2"
     inkscape:window-width="1023"
     inkscape:window-height="623"
     id="namedview20"
     showgrid="false"
     inkscape:zoom="1.147955"
     inkscape:cx="5.64927"
     inkscape:cy="128"
     inkscape:window-x="0"
     inkscape:window-y="27"
     inkscape:window-maximized="0"
     inkscape:current-layer="svg2" />
  <defs
     id="defs4">
    <linearGradient
       id="linearGradient4845">
      <stop
         stop-color="#d01f3c"
         id="stop4847"
         offset="0" />
      <stop
         stop-color="#d01f3c"
         id="stop4853"
         offset="0.5" />
      <stop
         stop-color="#d32c48"
         id="stop4855"
         offset="0.5" />
      <stop
         stop-color="#eb9fab"
         id="stop4849"
         offset="1" />
    </linearGradient>
    <linearGradient
       gradientUnits="userSpaceOnUse"
       xlink:href="#linearGradient4845"
       id="linearGradient4851"
       y2="119.94179"
       x2="239.74998"
       y1="263.20898"
       x1="239.74998" />
    <linearGradient
       gradientUnits="userSpaceOnUse"
       xlink:href="#linearGradient4845"
       id="linearGradient4862"
       y2="119.94179"
       x2="239.74998"
       y1="263.20898"
       x1="239.74998" />
    <linearGradient
       xlink:href="#linearGradient4845"
       id="linearGradient1433"
       y2="-0.003883"
       x2="0.48083"
       y1="0.828193"
       x1="0.48083" />
  </defs>
  <g
     id="g14"
     style="fill:#000000;fill-opacity:1"
     transform="matrix(1.252481,0,0,1.252481,-32.31757,-34.560638)">
    <title
       id="title16">Layer 1</title>
    <g
       display="inline"
       id="layer1"
       style="fill:#000000;fill-opacity:1;display:inline">
      <path
         id="path1952"
         d="m 147.74242,158.95406 -2.13848,-4.94561 -18.38383,-43.738 C 121.1484,94.791222 106.01414,84.332604 88.955123,84.332604 c -23.083221,0 -41.808273,19.551186 -41.808273,43.679266 0,24.10559 18.725052,43.66802 41.808273,43.66802 16.114137,0 30.097307,-9.51625 37.080137,-23.44442 l 7.43277,17.89389 c -10.54111,13.4345 -26.57776,21.99088 -44.512907,21.99088 -31.794575,0 -57.561203,-26.89397 -57.561203,-60.10837 0,-33.213148 25.766628,-60.132109 57.561203,-60.132109 23.991857,0 43.369327,13.371986 53.216777,37.087639 0.7349,1.84101 10.40238,25.43291 18.84252,45.51403 5.21182,12.41962 9.66122,20.67602 24.10934,21.18097 14.16063,0.50117 23.92186,-8.50014 23.92186,-19.90239 0,-11.13728 -7.44902,-13.81444 -19.97238,-18.16762 -22.50955,-7.74273 -34.15178,-15.52921 -34.15178,-34.179275 0,-18.193863 11.84221,-30.328514 31.11467,-30.328514 12.53586,0 21.60967,5.832977 27.89635,17.455208 L 201.5966,93.11019 c -4.6244,-6.771614 -9.74873,-9.453751 -16.24788,-9.453751 -9.04879,0 -15.48545,6.571632 -15.48545,15.304253 0,12.400868 10.62361,14.266868 25.47164,19.348708 19.98488,6.79661 29.27117,14.56809 29.27117,33.95303 0,20.36484 -16.72281,35.20414 -38.56995,35.16664 -20.12236,-0.09 -30.86094,-10.36488 -38.29371,-28.47502"
         style="fill:#000000;fill-opacity:1;fill-rule:nonzero"
         inkscape:connector-curvature="0" />
    </g>
  </g>
</svg>
