<?xml version="1.0" encoding="UTF-8"?>
<svg version="1.1" viewBox="0 0 256 256" xmlns="http://www.w3.org/2000/svg" xmlns:cc="http://creativecommons.org/ns#" xmlns:dc="http://purl.org/dc/elements/1.1/" xmlns:rdf="http://www.w3.org/1999/02/22-rdf-syntax-ns#" xmlns:xlink="http://www.w3.org/1999/xlink">
  <metadata>
    <rdf:RDF>
      <cc:Work rdf:about="">
        <dc:format>image/svg+xml</dc:format>
        <dc:type rdf:resource="http://purl.org/dc/dcmitype/StillImage"/>
      </cc:Work>
    </rdf:RDF>
  </metadata>
  <g transform="matrix(1.2525 0 0 1.2525 -32.318 -34.561)">
    <title>Layer 1</title>
    <g>
      <path d="m147.74 158.95-2.1385-4.9456-18.384-43.738c-6.0717-15.479-21.206-25.938-38.265-25.938-23.083 0-41.808 19.551-41.808 43.679 0 24.106 18.725 43.668 41.808 43.668 16.114 0 30.097-9.5162 37.08-23.444l7.4328 17.894c-10.541 13.434-26.578 21.991-44.513 21.991-31.795 0-57.561-26.894-57.561-60.108 0-33.213 25.767-60.132 57.561-60.132 23.992 0 43.369 13.372 53.217 37.088 0.7349 1.841 10.402 25.433 18.843 45.514 5.2118 12.42 9.6612 20.676 24.109 21.181 14.161 0.50117 23.922-8.5001 23.922-19.902 0-11.137-7.449-13.814-19.972-18.168-22.51-7.7427-34.152-15.529-34.152-34.179 0-18.194 11.842-30.329 31.115-30.329 12.536 0 21.61 5.833 27.896 17.455l-12.336 6.5704c-4.6244-6.7716-9.7487-9.4538-16.248-9.4538-9.0488 0-15.485 6.5716-15.485 15.304 0 12.401 10.624 14.267 25.472 19.349 19.985 6.7966 29.271 14.568 29.271 33.953 0 20.365-16.723 35.204-38.57 35.167-20.122-0.09-30.861-10.365-38.294-28.475"/>
    </g>
  </g>
</svg>
