<?xml version="1.0" encoding="UTF-8" standalone="no"?>
<!-- Created with Inkscape (http://www.inkscape.org/) -->
<svg
   xmlns:svg="http://www.w3.org/2000/svg"
   xmlns="http://www.w3.org/2000/svg"
   xmlns:xlink="http://www.w3.org/1999/xlink"
   version="1.0"
   width="256"
   height="256"
   id="svg16748">
  <defs
     id="defs16750">
    <linearGradient
       id="linearGradient4845">
      <stop
         style="stop-color:#d01f3c;stop-opacity:1"
         offset="0"
         id="stop4847" />
      <stop
         style="stop-color:#d01f3c;stop-opacity:1"
         offset="0.5"
         id="stop4853" />
      <stop
         style="stop-color:#d32c48;stop-opacity:1"
         offset="0.5"
         id="stop4855" />
      <stop
         style="stop-color:#eb9fab;stop-opacity:1"
         offset="1"
         id="stop4849" />
    </linearGradient>
    <linearGradient
       x1="239.74998"
       y1="263.20898"
       x2="239.74998"
       y2="119.94179"
       id="linearGradient4851"
       xlink:href="#linearGradient4845"
       gradientUnits="userSpaceOnUse" />
    <linearGradient
       x1="239.74998"
       y1="263.20898"
       x2="239.74998"
       y2="119.94179"
       id="linearGradient4862"
       xlink:href="#linearGradient4845"
       gradientUnits="userSpaceOnUse" />
    <linearGradient
       x1="239.74998"
       y1="263.20898"
       x2="239.74998"
       y2="119.94179"
       id="linearGradient1433"
       xlink:href="#linearGradient4845"
       gradientUnits="userSpaceOnUse"
       gradientTransform="matrix(1.486812,0,0,1.486812,-233.3706,-179.325)" />
  </defs>
  <g
     style="display:inline"
     id="layer3">
    <rect
       width="256"
       height="256"
       rx="25"
       ry="25"
       x="0"
       y="0"
       style="opacity:1;color:#000000;fill:url(#linearGradient1433);fill-opacity:1;fill-rule:evenodd;stroke:none;stroke-width:1px;stroke-linecap:butt;stroke-linejoin:miter;marker:none;marker-start:none;marker-mid:none;marker-end:none;stroke-miterlimit:4;stroke-dasharray:none;stroke-dashoffset:0;stroke-opacity:1;visibility:visible;display:inline;overflow:visible"
       id="rect1377" />
  </g>
  <g
     style="display:inline"
     id="layer1">
    <path
       d="M 147.74242,158.95406 L 145.60395,154.00846 L 127.22011,110.27045 C 121.1484,94.791223 106.01414,84.332603 88.955124,84.332603 C 65.871904,84.332603 47.146854,103.88379 47.146854,128.01187 C 47.146854,152.11746 65.871904,171.67989 88.955124,171.67989 C 105.06926,171.67989 119.05243,162.16364 126.03526,148.23547 L 133.46804,166.12937 C 122.92692,179.56386 106.89027,188.12024 88.955124,188.12024 C 57.160544,188.12024 31.393924,161.22627 31.393924,128.01187 C 31.393924,94.798722 57.160544,67.879762 88.955124,67.879762 C 112.94698,67.879762 132.32444,81.251753 142.1719,104.9674 C 142.9068,106.80841 152.57428,130.40031 161.01442,150.48143 C 166.22624,162.90105 170.67565,171.15746 185.12376,171.6624 C 199.2844,172.16358 209.04562,163.16226 209.04562,151.76001 C 209.04562,140.62272 201.5966,137.94557 189.07324,133.59239 C 166.56369,125.84966 154.92147,118.06318 154.92147,99.413123 C 154.92147,81.219252 166.76367,69.084603 186.03614,69.084603 C 198.57199,69.084603 207.6458,74.917583 213.93248,86.539812 L 201.5966,93.110192 C 196.9722,86.338583 191.84787,83.656442 185.34873,83.656442 C 176.29992,83.656442 169.86326,90.228072 169.86326,98.960683 C 169.86326,111.36156 180.48687,113.22756 195.33492,118.3094 C 215.31979,125.10601 224.60608,132.87749 224.60608,152.26244 C 224.60608,172.62727 207.88327,187.46657 186.03614,187.42908 C 165.91378,187.33909 155.17519,177.06419 147.74242,158.95406"
       style="fill:#ffffff;fill-opacity:1;fill-rule:nonzero;stroke:none;display:inline"
       id="path1952" />
  </g>
</svg>
