<?xml version="1.0" encoding="UTF-8" standalone="no"?>
<!-- Created with Inkscape (http://www.inkscape.org/) -->
<svg
   xmlns:dc="http://purl.org/dc/elements/1.1/"
   xmlns:cc="http://web.resource.org/cc/"
   xmlns:rdf="http://www.w3.org/1999/02/22-rdf-syntax-ns#"
   xmlns:svg="http://www.w3.org/2000/svg"
   xmlns="http://www.w3.org/2000/svg"
   xmlns:xlink="http://www.w3.org/1999/xlink"
   xmlns:sodipodi="http://sodipodi.sourceforge.net/DTD/sodipodi-0.dtd"
   xmlns:inkscape="http://www.inkscape.org/namespaces/inkscape"
   width="48"
   height="48"
   id="svg5615"
   sodipodi:version="0.32"
   inkscape:version="0.45.1"
   sodipodi:docbase="/home/cornelius/Desktop/GFX/ikony/brasero/Final/scalable"
   sodipodi:docname="media-optical-audio-new.svg"
   inkscape:output_extension="org.inkscape.output.svg.inkscape"
   version="1.0"
   inkscape:export-filename="/home/cornelius/GFX/ikony/brasero/Final/scalable/disc-burn.png"
   inkscape:export-xdpi="90"
   inkscape:export-ydpi="90">
  <defs
     id="defs5617">
    <linearGradient
       inkscape:collect="always"
       id="linearGradient6343">
      <stop
         style="stop-color:#fce94f;stop-opacity:1;"
         offset="0"
         id="stop6345" />
      <stop
         style="stop-color:#fce94f;stop-opacity:0;"
         offset="1"
         id="stop6347" />
    </linearGradient>
    <linearGradient
       id="linearGradient2911"
       inkscape:collect="always">
      <stop
         id="stop2913"
         offset="0"
         style="stop-color:#eeeeec;stop-opacity:1;" />
      <stop
         id="stop2915"
         offset="1"
         style="stop-color:#eeeeec;stop-opacity:0;" />
    </linearGradient>
    <linearGradient
       id="linearGradient2968"
       inkscape:collect="always">
      <stop
         id="stop2970"
         offset="0"
         style="stop-color:#2e3436;stop-opacity:1;" />
      <stop
         id="stop2972"
         offset="1"
         style="stop-color:#2e3436;stop-opacity:0;" />
    </linearGradient>
    <radialGradient
       gradientUnits="userSpaceOnUse"
       gradientTransform="matrix(1,0,0,0.188119,0,33.80352)"
       r="17.854446"
       fy="41.63604"
       fx="23.688078"
       cy="41.63604"
       cx="23.688078"
       id="radialGradient2974"
       xlink:href="#linearGradient2968"
       inkscape:collect="always" />
    <linearGradient
       inkscape:collect="always"
       id="linearGradient6672">
      <stop
         style="stop-color:#ffffff;stop-opacity:1;"
         offset="0"
         id="stop6674" />
      <stop
         style="stop-color:#ffffff;stop-opacity:0;"
         offset="1"
         id="stop6676" />
    </linearGradient>
    <linearGradient
       inkscape:collect="always"
       id="linearGradient6565">
      <stop
         style="stop-color:#000000;stop-opacity:1;"
         offset="0"
         id="stop6567" />
      <stop
         style="stop-color:#000000;stop-opacity:0;"
         offset="1"
         id="stop6569" />
    </linearGradient>
    <radialGradient
       inkscape:collect="always"
       xlink:href="#linearGradient6565"
       id="radialGradient7284"
       gradientUnits="userSpaceOnUse"
       cx="23.945768"
       cy="24.538368"
       fx="23.945768"
       fy="24.538368"
       r="21.456448" />
    <linearGradient
       inkscape:collect="always"
       id="linearGradient5912">
      <stop
         style="stop-color:#ebebe8;stop-opacity:1"
         offset="0"
         id="stop5914" />
      <stop
         style="stop-color:#eeeeec;stop-opacity:1"
         offset="1"
         id="stop5916" />
    </linearGradient>
    <linearGradient
       inkscape:collect="always"
       xlink:href="#linearGradient5912"
       id="linearGradient7286"
       gradientUnits="userSpaceOnUse"
       x1="9.2952967"
       y1="5.6606879"
       x2="13.387451"
       y2="33.641579" />
    <linearGradient
       inkscape:collect="always"
       xlink:href="#linearGradient6672"
       id="linearGradient6678"
       x1="43.281902"
       y1="37.463642"
       x2="28.477448"
       y2="37.465446"
       gradientUnits="userSpaceOnUse" />
    <radialGradient
       inkscape:collect="always"
       xlink:href="#linearGradient6565"
       id="radialGradient6710"
       gradientUnits="userSpaceOnUse"
       cx="23.945768"
       cy="24.538368"
       fx="23.945768"
       fy="24.538368"
       r="21.456448" />
    <linearGradient
       inkscape:collect="always"
       xlink:href="#linearGradient5912"
       id="linearGradient6712"
       gradientUnits="userSpaceOnUse"
       x1="9.2952967"
       y1="5.6606879"
       x2="13.387451"
       y2="33.641579"
       gradientTransform="matrix(1.0020298,0,0,1.0020298,5.63e-3,-0.5881773)" />
    <radialGradient
       inkscape:collect="always"
       xlink:href="#linearGradient6565"
       id="radialGradient6746"
       gradientUnits="userSpaceOnUse"
       cx="23.945768"
       cy="24.538368"
       fx="23.945768"
       fy="24.538368"
       r="21.456448" />
    <linearGradient
       inkscape:collect="always"
       xlink:href="#linearGradient5912"
       id="linearGradient6748"
       gradientUnits="userSpaceOnUse"
       x1="9.2952967"
       y1="5.6606879"
       x2="13.387451"
       y2="33.641579" />
    <linearGradient
       inkscape:collect="always"
       xlink:href="#linearGradient6672"
       id="linearGradient6753"
       gradientUnits="userSpaceOnUse"
       x1="43.281902"
       y1="37.463642"
       x2="28.477448"
       y2="37.465446"
       gradientTransform="matrix(0.6345368,0,0,0.5552197,-43.62219,-25.574755)" />
    <linearGradient
       inkscape:collect="always"
       xlink:href="#linearGradient5912"
       id="linearGradient6789"
       gradientUnits="userSpaceOnUse"
       x1="9.2952967"
       y1="5.6606879"
       x2="13.387451"
       y2="33.641579" />
    <linearGradient
       inkscape:collect="always"
       xlink:href="#linearGradient6672"
       id="linearGradient6815"
       gradientUnits="userSpaceOnUse"
       gradientTransform="matrix(0.5044,0,0,0.789146,-3.3886096,-9.1055033)"
       x1="43.281902"
       y1="37.463642"
       x2="28.477448"
       y2="37.465446" />
    <linearGradient
       inkscape:collect="always"
       xlink:href="#linearGradient6672"
       id="linearGradient6830"
       gradientUnits="userSpaceOnUse"
       gradientTransform="matrix(0.5044,0,0,0.789146,-3.3886096,-9.1055033)"
       x1="43.281902"
       y1="37.463642"
       x2="28.477448"
       y2="37.465446" />
    <radialGradient
       inkscape:collect="always"
       xlink:href="#linearGradient2911"
       id="radialGradient5364"
       gradientUnits="userSpaceOnUse"
       gradientTransform="matrix(0.957284,-0.174215,8.774306e-2,0.339933,-2.536944,26.0587)"
       cx="10.702267"
       cy="34.716267"
       fx="10.702267"
       fy="34.716267"
       r="7.6234951" />
    <radialGradient
       inkscape:collect="always"
       xlink:href="#linearGradient2911"
       id="radialGradient5366"
       gradientUnits="userSpaceOnUse"
       gradientTransform="matrix(0.957284,-0.174215,8.774306e-2,0.339933,-2.536944,26.0587)"
       cx="10.702267"
       cy="34.716267"
       fx="10.702267"
       fy="34.716267"
       r="7.6234951" />
    <radialGradient
       inkscape:collect="always"
       xlink:href="#linearGradient6343"
       id="radialGradient6349"
       cx="36.619595"
       cy="7.2211123"
       fx="36.619595"
       fy="7.2211123"
       r="5.1705894"
       gradientUnits="userSpaceOnUse" />
  </defs>
  <sodipodi:namedview
     id="base"
     pagecolor="#ffffff"
     bordercolor="#666666"
     borderopacity="1.0"
     inkscape:pageopacity="0.0"
     inkscape:pageshadow="2"
     inkscape:zoom="10.5"
     inkscape:cx="34.099138"
     inkscape:cy="29.744796"
     inkscape:current-layer="layer1"
     showgrid="true"
     inkscape:grid-bbox="true"
     inkscape:document-units="px"
     inkscape:window-width="872"
     inkscape:window-height="782"
     inkscape:window-x="219"
     inkscape:window-y="64"
     width="48px"
     height="48px"
     inkscape:showpageshadow="false"
     showborder="true" />
  <metadata
     id="metadata5620">
    <rdf:RDF>
      <cc:Work
         rdf:about="">
        <dc:format>image/svg+xml</dc:format>
        <dc:type
           rdf:resource="http://purl.org/dc/dcmitype/StillImage" />
      </cc:Work>
    </rdf:RDF>
  </metadata>
  <g
     id="layer1"
     inkscape:label="Layer 1"
     inkscape:groupmode="layer">
    <path
       sodipodi:type="arc"
       style="opacity:0.38864632;color:#000000;fill:url(#radialGradient6710);fill-opacity:1;fill-rule:evenodd;stroke:none;stroke-width:1.50133264px;stroke-linecap:round;stroke-linejoin:miter;marker:none;marker-start:none;marker-mid:none;marker-end:none;stroke-miterlimit:4;stroke-dasharray:none;stroke-dashoffset:0;stroke-opacity:1;visibility:visible;display:inline;overflow:visible;enable-background:accumulate"
       id="path6680"
       sodipodi:cx="23.945768"
       sodipodi:cy="24.538368"
       sodipodi:rx="21.456448"
       sodipodi:ry="21.456448"
       d="M 45.402216,24.538368 A 21.456448,21.456448 0 1 1 2.4893208,24.538368 A 21.456448,21.456448 0 1 1 45.402216,24.538368 z"
       transform="matrix(1.0253328,0,0,0.4660604,-0.55238,26.563638)" />
    <path
       style="opacity:1;color:#000000;fill:url(#linearGradient6712);fill-opacity:1;fill-rule:evenodd;stroke:#888a85;stroke-width:1.00000036px;stroke-linecap:round;stroke-linejoin:miter;marker:none;marker-start:none;marker-mid:none;marker-end:none;stroke-miterlimit:4;stroke-dasharray:none;stroke-dashoffset:0;stroke-opacity:1;visibility:visible;display:inline;overflow:visible;enable-background:accumulate"
       d="M 24 2.5 C 12.132 2.5 2.5 12.132001 2.5 24 C 2.5 35.868 12.132 45.499999 24 45.5 C 35.868 45.5 45.5 35.868001 45.5 24 C 45.5 12.132 35.868 2.5 24 2.5 z M 24 19.5 C 26.484001 19.5 28.5 21.516 28.5 24 C 28.5 26.484001 26.484 28.5 24 28.5 C 21.516 28.500001 19.5 26.484 19.5 24 C 19.5 21.516 21.516 19.5 24 19.5 z "
       id="path6682" />
    <path
       style="opacity:1;color:#000000;fill:#000000;fill-opacity:0.1081081;fill-rule:evenodd;stroke:none;stroke-width:2.52428889px;stroke-linecap:round;stroke-linejoin:miter;marker:none;marker-start:none;marker-mid:none;marker-end:none;stroke-miterlimit:4;stroke-dasharray:none;stroke-dashoffset:0;stroke-opacity:1;visibility:visible;display:inline;overflow:visible;enable-background:accumulate"
       d="M 24 15 C 19.031999 15 15 19.031999 15 24 C 15 28.968001 19.031999 32.999999 24 33 C 28.968001 33 32.999999 28.968 33 24 C 33 19.031999 28.968001 15 24 15 z M 24 19.03125 C 26.746858 19.031249 28.96875 21.253142 28.96875 24 C 28.96875 26.746857 26.746858 28.96875 24 28.96875 C 21.253142 28.968751 19.03125 26.746858 19.03125 24 C 19.03125 21.253141 21.253142 19.03125 24 19.03125 z "
       id="path6684" />
    <path
       sodipodi:type="arc"
       style="opacity:1;color:#000000;fill:none;fill-opacity:1;fill-rule:evenodd;stroke:#ffffff;stroke-width:1.04665625px;stroke-linecap:round;stroke-linejoin:miter;marker:none;marker-start:none;marker-mid:none;marker-end:none;stroke-miterlimit:4;stroke-dasharray:none;stroke-dashoffset:0;stroke-opacity:0.56756759;visibility:visible;display:inline;overflow:visible;enable-background:accumulate"
       id="path6686"
       sodipodi:cx="23.945768"
       sodipodi:cy="24.538368"
       sodipodi:rx="21.456448"
       sodipodi:ry="21.456448"
       d="M 45.402216,24.538368 A 21.456448,21.456448 0 1 1 2.4893208,24.538368 A 21.456448,21.456448 0 1 1 45.402216,24.538368 z"
       transform="matrix(0.9554238,0,0,0.9554238,1.12164,0.5554587)" />
    <path
       transform="matrix(0.2563332,0,0,0.2563332,17.86191,17.710003)"
       d="M 45.402216,24.538368 A 21.456448,21.456448 0 1 1 2.4893208,24.538368 A 21.456448,21.456448 0 1 1 45.402216,24.538368 z"
       sodipodi:ry="21.456448"
       sodipodi:rx="21.456448"
       sodipodi:cy="24.538368"
       sodipodi:cx="23.945768"
       id="path6688"
       style="opacity:1;color:#000000;fill:none;fill-opacity:1;fill-rule:evenodd;stroke:#ffffff;stroke-width:3.90117431px;stroke-linecap:round;stroke-linejoin:miter;marker:none;marker-start:none;marker-mid:none;marker-end:none;stroke-miterlimit:4;stroke-dasharray:none;stroke-dashoffset:0;stroke-opacity:0.42342344;visibility:visible;display:inline;overflow:visible;enable-background:accumulate"
       sodipodi:type="arc" />
    <path
       sodipodi:nodetypes="cccccccccc"
       id="path6692"
       d="M 44.066288,18.000471 C 42.894348,14.151911 40.52885,10.663033 37.55037,8.1063947 C 35.35677,10.724751 31.5624,15.407012 27.38396,20.303224 C 28.06637,20.857875 28.59202,21.596203 28.84381,22.462581 L 44.066288,18.000471 z M 20.71333,27.756685 C 20.16706,27.261807 19.73893,26.644957 19.49679,25.931877 L 3.97021,30.648272 C 5.18652,34.332428 7.40663,37.554773 10.29622,40.015624 C 12.73414,37.179107 16.22447,32.996628 20.71333,27.756685 z"
       style="fill:#ffffff;fill-opacity:0.28828831;fill-rule:evenodd;stroke:none;stroke-width:1px;stroke-linecap:butt;stroke-linejoin:miter;stroke-opacity:1" />
    <path
       style="fill:#000000;fill-opacity:0.04054057;fill-rule:evenodd;stroke:none;stroke-width:1px;stroke-linecap:butt;stroke-linejoin:miter;stroke-opacity:1"
       d="M 17.79314,4.1733377 C 13.94458,5.3452807 10.55664,7.5816877 8,10.560169 C 10.61836,12.753772 15.72538,17.087281 20.62159,21.265714 C 21.17624,20.583312 21.91457,20.057662 22.78095,19.805867 L 17.79314,4.1733377 z M 27.22132,26.922621 C 26.72644,27.468896 26.10959,27.897026 25.39651,28.13916 L 30.44515,44.04541 C 34.1293,42.829106 37.35165,40.608993 39.8125,37.719406 C 36.97598,35.281485 32.46126,31.411485 27.22132,26.922621 z"
       id="path6694" />
    <path
       inkscape:transform-center-y="-3.9217216"
       inkscape:transform-center-x="-11.459592"
       style="fill:none;fill-opacity:1;fill-rule:evenodd;stroke:#ffffff;stroke-width:1px;stroke-linecap:butt;stroke-linejoin:miter;stroke-opacity:0.36486487"
       d="M 19.08694,27.973857 L 7.04454,35.135785 M 37.31763,9.0359917 L 28.37057,19.799305"
       id="path6696"
       sodipodi:nodetypes="cccc" />
    <g
       id="g5341"
       inkscape:label="Shadow"
       transform="matrix(0.7272734,0,0,0.7243331,14.545445,16.80289)">
      <path
         sodipodi:type="arc"
         style="opacity:0.20179372;color:#000000;fill:url(#radialGradient2974);fill-opacity:1;fill-rule:evenodd;stroke:none;stroke-width:1;stroke-linecap:butt;stroke-linejoin:miter;marker:none;marker-start:none;marker-mid:none;marker-end:none;stroke-miterlimit:4;stroke-dasharray:none;stroke-dashoffset:0;stroke-opacity:0.44102562;visibility:visible;display:inline;overflow:visible"
         id="path2964"
         sodipodi:cx="23.688078"
         sodipodi:cy="41.63604"
         sodipodi:rx="17.854446"
         sodipodi:ry="3.3587573"
         d="M 41.542524 41.63604 A 17.854446 3.3587573 0 1 1  5.8336315,41.63604 A 17.854446 3.3587573 0 1 1  41.542524 41.63604 z"
         transform="matrix(1.232185,0,0,1.488643,-5.188102,-23.98118)" />
    </g>
    <path
       sodipodi:nodetypes="ccccsssccccsssccc"
       id="rect2931"
       d="M 43.783568,21.506044 L 27.183101,23.120666 C 26.789168,23.158903 26.468816,23.513744 26.468816,23.917199 L 26.491137,40.557251 C 25.747678,40.442461 24.945406,40.403555 24.058103,40.511735 C 21.301844,40.847775 19.35479,42.159871 19.497871,43.535869 C 19.640952,44.911868 22.009465,45.760831 24.765724,45.42479 C 27.521984,45.08875 29.640944,43.682931 29.497864,42.306932 L 29.497864,26.599949 L 41.497997,25.379838 L 41.49151,38.64473 C 40.748571,38.52994 40.110195,38.444328 39.223512,38.552507 C 36.46918,38.888547 34.348392,40.294366 34.491373,41.670364 C 34.634355,43.046363 37.004893,43.895326 39.759226,43.559285 C 42.51356,43.223245 44.634347,41.817426 44.491366,40.441428 L 44.497853,22.166028 C 44.497853,21.762573 44.177501,21.467807 43.783568,21.506044 z "
       style="color:#000000;fill:#f57900;fill-opacity:1;fill-rule:evenodd;stroke:#ce5c00;stroke-width:1.00000036;stroke-linecap:butt;stroke-linejoin:miter;marker:none;marker-start:none;marker-mid:none;marker-end:none;stroke-miterlimit:4;stroke-dasharray:none;stroke-dashoffset:0;stroke-opacity:1;visibility:visible;display:inline;overflow:visible" />
    <path
       transform="matrix(0.585304,-6.7643963e-2,7.9923373e-2,0.7285841,14.08886,16.805441)"
       d="M 20.285126 37.128235 A 7.6234951 2.6516504 0 1 1  5.0381355,37.128235 A 7.6234951 2.6516504 0 1 1  20.285126 37.128235 z"
       sodipodi:ry="2.6516504"
       sodipodi:rx="7.6234951"
       sodipodi:cy="37.128235"
       sodipodi:cx="12.661631"
       id="path2901"
       style="opacity:0.69955157;color:#000000;fill:url(#radialGradient5364);fill-opacity:1;fill-rule:evenodd;stroke:none;stroke-width:1;stroke-linecap:butt;stroke-linejoin:miter;marker:none;marker-start:none;marker-mid:none;marker-end:none;stroke-miterlimit:4;stroke-dasharray:none;stroke-dashoffset:0;stroke-opacity:1;visibility:visible;display:inline;overflow:visible"
       sodipodi:type="arc" />
    <path
       sodipodi:type="arc"
       style="opacity:0.69955157;color:#000000;fill:url(#radialGradient5366);fill-opacity:1;fill-rule:evenodd;stroke:none;stroke-width:1;stroke-linecap:butt;stroke-linejoin:miter;marker:none;marker-start:none;marker-mid:none;marker-end:none;stroke-miterlimit:4;stroke-dasharray:none;stroke-dashoffset:0;stroke-opacity:1;visibility:visible;display:inline;overflow:visible"
       id="path2942"
       sodipodi:cx="12.661631"
       sodipodi:cy="37.128235"
       sodipodi:rx="7.6234951"
       sodipodi:ry="2.6516504"
       d="M 20.285126 37.128235 A 7.6234951 2.6516504 0 1 1  5.0381355,37.128235 A 7.6234951 2.6516504 0 1 1  20.285126 37.128235 z"
       transform="matrix(0.5896046,-6.7643985e-2,8.0510578e-2,0.7285843,29.045429,14.805433)" />
    <path
       style="color:#000000;fill:none;fill-opacity:1;fill-rule:evenodd;stroke:#ffffff;stroke-width:1.00000036;stroke-linecap:butt;stroke-linejoin:miter;marker:none;marker-start:none;marker-mid:none;marker-end:none;stroke-miterlimit:4;stroke-dasharray:none;stroke-dashoffset:0;stroke-opacity:0.44102562;visibility:visible;display:inline;overflow:visible"
       d="M 43.052518,22.53357 L 28.081055,23.998756 C 27.403017,24.053085 27.443643,24.176201 27.467318,24.949781 L 27.495056,41.553318 C 26.751598,41.438528 25.434319,41.304744 24.547016,41.412923 C 21.790757,41.748964 20.293694,42.628653 20.586193,43.614334 C 20.919773,44.738451 23.728772,44.644683 24.916051,44.37842 C 26.402469,44.045072 28.122483,43.544058 28.403509,42.418398 L 28.462814,25.659561 L 42.523381,24.300652 L 42.469683,39.628916 C 41.726744,39.514126 40.474087,39.394909 39.587404,39.503088 C 36.833071,39.839129 35.225705,40.760748 35.513015,41.647162 C 35.754472,42.392109 38.288867,42.692067 39.738029,42.515592 C 40.867646,42.377721 42.773363,42.026099 43.45113,40.634009 L 43.498481,23.290108 C 43.498481,22.387789 43.620071,22.495333 43.052518,22.53357 z "
       id="path2962"
       sodipodi:nodetypes="ccccsssccccsssccc" />
    <path
       sodipodi:type="arc"
       style="opacity:1;color:#000000;fill:url(#radialGradient6349);fill-opacity:1;fill-rule:evenodd;stroke:none;stroke-width:1.01691592;stroke-linecap:square;stroke-linejoin:round;marker:none;marker-start:none;marker-mid:none;marker-end:none;stroke-miterlimit:4;stroke-dasharray:none;stroke-dashoffset:0;stroke-opacity:1;visibility:visible;display:inline;overflow:visible;enable-background:accumulate"
       id="path6341"
       sodipodi:cx="36.619595"
       sodipodi:cy="7.2211123"
       sodipodi:rx="5.1705894"
       sodipodi:ry="5.1705894"
       d="M 41.790184 7.2211123 A 5.1705894 5.1705894 0 1 1  31.449005,7.2211123 A 5.1705894 5.1705894 0 1 1  41.790184 7.2211123 z"
       transform="matrix(1.4505113,0,0,1.4505112,-17.617138,-1.9743041)" />
    <path
       sodipodi:type="star"
       style="opacity:1;color:#000000;fill:#ffffff;fill-opacity:1;fill-rule:evenodd;stroke:#fce94f;stroke-width:0.90961909;stroke-linecap:square;stroke-linejoin:round;marker:none;marker-start:none;marker-mid:none;marker-end:none;stroke-miterlimit:4;stroke-dasharray:none;stroke-dashoffset:0;stroke-opacity:1;visibility:visible;display:inline;overflow:visible;enable-background:accumulate"
       id="path5368"
       sodipodi:sides="5"
       sodipodi:cx="34.55793"
       sodipodi:cy="3.5622063"
       sodipodi:r1="4.6588063"
       sodipodi:r2="2.3294032"
       sodipodi:arg1="1.5707963"
       sodipodi:arg2="2.1991148"
       inkscape:flatsided="false"
       inkscape:rounded="0"
       inkscape:randomized="0"
       d="M 34.55793,8.2210126 L 33.188741,5.4467331 L 30.127142,5.0018567 L 32.342536,2.8423812 L 31.819552,-0.20684715 L 34.55793,1.2328031 L 37.296308,-0.20684729 L 36.773324,2.842381 L 38.988718,5.0018565 L 35.927119,5.4467329 L 34.55793,8.2210126 z "
       transform="matrix(1.1317634,0,0,1.0678868,-3.6260042,4.7208895)" />
  </g>
</svg>
