<?xml version="1.0" encoding="UTF-8" standalone="no"?>
<!-- Created with Inkscape (http://www.inkscape.org/) -->
<svg
   xmlns:dc="http://purl.org/dc/elements/1.1/"
   xmlns:cc="http://web.resource.org/cc/"
   xmlns:rdf="http://www.w3.org/1999/02/22-rdf-syntax-ns#"
   xmlns:svg="http://www.w3.org/2000/svg"
   xmlns="http://www.w3.org/2000/svg"
   xmlns:xlink="http://www.w3.org/1999/xlink"
   xmlns:sodipodi="http://sodipodi.sourceforge.net/DTD/sodipodi-0.dtd"
   xmlns:inkscape="http://www.inkscape.org/namespaces/inkscape"
   width="48"
   height="48"
   id="svg5615"
   sodipodi:version="0.32"
   inkscape:version="0.45.1"
   sodipodi:docbase="/home/cornelius/Desktop/GFX/ikony/brasero/Final/scalable"
   sodipodi:docname="media-optical-burn.svg"
   inkscape:output_extension="org.inkscape.output.svg.inkscape"
   version="1.0"
   inkscape:export-filename="/home/cornelius/GFX/ikony/brasero/Final/scalable/disc-burn.png"
   inkscape:export-xdpi="90"
   inkscape:export-ydpi="90">
  <defs
     id="defs5617">
    <linearGradient
       inkscape:collect="always"
       id="linearGradient5911">
      <stop
         style="stop-color:#fcaf3e;stop-opacity:1;"
         offset="0"
         id="stop5913" />
      <stop
         style="stop-color:#f57900;stop-opacity:1"
         offset="1"
         id="stop5915" />
    </linearGradient>
    <linearGradient
       inkscape:collect="always"
       id="linearGradient6672">
      <stop
         style="stop-color:#ffffff;stop-opacity:1;"
         offset="0"
         id="stop6674" />
      <stop
         style="stop-color:#ffffff;stop-opacity:0;"
         offset="1"
         id="stop6676" />
    </linearGradient>
    <linearGradient
       inkscape:collect="always"
       id="linearGradient6565">
      <stop
         style="stop-color:#000000;stop-opacity:1;"
         offset="0"
         id="stop6567" />
      <stop
         style="stop-color:#000000;stop-opacity:0;"
         offset="1"
         id="stop6569" />
    </linearGradient>
    <radialGradient
       inkscape:collect="always"
       xlink:href="#linearGradient6565"
       id="radialGradient7284"
       gradientUnits="userSpaceOnUse"
       cx="23.945768"
       cy="24.538368"
       fx="23.945768"
       fy="24.538368"
       r="21.456448" />
    <linearGradient
       inkscape:collect="always"
       id="linearGradient5912">
      <stop
         style="stop-color:#ebebe8;stop-opacity:1"
         offset="0"
         id="stop5914" />
      <stop
         style="stop-color:#eeeeec;stop-opacity:1"
         offset="1"
         id="stop5916" />
    </linearGradient>
    <linearGradient
       inkscape:collect="always"
       xlink:href="#linearGradient5912"
       id="linearGradient7286"
       gradientUnits="userSpaceOnUse"
       x1="9.2952967"
       y1="5.6606879"
       x2="13.387451"
       y2="33.641579" />
    <linearGradient
       inkscape:collect="always"
       xlink:href="#linearGradient6672"
       id="linearGradient6678"
       x1="43.281902"
       y1="37.463642"
       x2="28.477448"
       y2="37.465446"
       gradientUnits="userSpaceOnUse" />
    <radialGradient
       inkscape:collect="always"
       xlink:href="#linearGradient6565"
       id="radialGradient6710"
       gradientUnits="userSpaceOnUse"
       cx="23.945768"
       cy="24.538368"
       fx="23.945768"
       fy="24.538368"
       r="21.456448" />
    <linearGradient
       inkscape:collect="always"
       xlink:href="#linearGradient5912"
       id="linearGradient6712"
       gradientUnits="userSpaceOnUse"
       x1="9.2952967"
       y1="5.6606879"
       x2="13.387451"
       y2="33.641579"
       gradientTransform="matrix(1.0020298,0,0,1.0020298,5.63e-3,-0.5881773)" />
    <radialGradient
       inkscape:collect="always"
       xlink:href="#linearGradient6565"
       id="radialGradient6746"
       gradientUnits="userSpaceOnUse"
       cx="23.945768"
       cy="24.538368"
       fx="23.945768"
       fy="24.538368"
       r="21.456448" />
    <linearGradient
       inkscape:collect="always"
       xlink:href="#linearGradient5912"
       id="linearGradient6748"
       gradientUnits="userSpaceOnUse"
       x1="9.2952967"
       y1="5.6606879"
       x2="13.387451"
       y2="33.641579" />
    <linearGradient
       inkscape:collect="always"
       xlink:href="#linearGradient6672"
       id="linearGradient6753"
       gradientUnits="userSpaceOnUse"
       x1="43.281902"
       y1="37.463642"
       x2="28.477448"
       y2="37.465446"
       gradientTransform="matrix(0.6345368,0,0,0.5552197,-43.62219,-25.574755)" />
    <linearGradient
       inkscape:collect="always"
       xlink:href="#linearGradient5912"
       id="linearGradient6789"
       gradientUnits="userSpaceOnUse"
       x1="9.2952967"
       y1="5.6606879"
       x2="13.387451"
       y2="33.641579" />
    <linearGradient
       inkscape:collect="always"
       xlink:href="#linearGradient6672"
       id="linearGradient6815"
       gradientUnits="userSpaceOnUse"
       gradientTransform="matrix(0.5044,0,0,0.789146,-3.3886096,-9.1055033)"
       x1="43.281902"
       y1="37.463642"
       x2="28.477448"
       y2="37.465446" />
    <linearGradient
       inkscape:collect="always"
       xlink:href="#linearGradient6672"
       id="linearGradient6830"
       gradientUnits="userSpaceOnUse"
       gradientTransform="matrix(0.5044,0,0,0.789146,-3.3886096,-9.1055033)"
       x1="43.281902"
       y1="37.463642"
       x2="28.477448"
       y2="37.465446" />
    <linearGradient
       inkscape:collect="always"
       xlink:href="#linearGradient5911"
       id="linearGradient5917"
       x1="10.455027"
       y1="21.968252"
       x2="10.455027"
       y2="30.652752"
       gradientUnits="userSpaceOnUse" />
  </defs>
  <sodipodi:namedview
     id="base"
     pagecolor="#ffffff"
     bordercolor="#666666"
     borderopacity="1.0"
     inkscape:pageopacity="0.0"
     inkscape:pageshadow="2"
     inkscape:zoom="15.749999"
     inkscape:cx="36.281182"
     inkscape:cy="22.586956"
     inkscape:current-layer="layer1"
     showgrid="true"
     inkscape:grid-bbox="true"
     inkscape:document-units="px"
     inkscape:window-width="872"
     inkscape:window-height="782"
     inkscape:window-x="206"
     inkscape:window-y="71"
     width="48px"
     height="48px"
     inkscape:showpageshadow="false"
     showborder="true" />
  <metadata
     id="metadata5620">
    <rdf:RDF>
      <cc:Work
         rdf:about="">
        <dc:format>image/svg+xml</dc:format>
        <dc:type
           rdf:resource="http://purl.org/dc/dcmitype/StillImage" />
      </cc:Work>
    </rdf:RDF>
  </metadata>
  <g
     id="layer1"
     inkscape:label="Layer 1"
     inkscape:groupmode="layer">
    <path
       sodipodi:type="arc"
       style="opacity:0.38864632;color:#000000;fill:url(#radialGradient6710);fill-opacity:1;fill-rule:evenodd;stroke:none;stroke-width:1.50133264px;stroke-linecap:round;stroke-linejoin:miter;marker:none;marker-start:none;marker-mid:none;marker-end:none;stroke-miterlimit:4;stroke-dasharray:none;stroke-dashoffset:0;stroke-opacity:1;visibility:visible;display:inline;overflow:visible;enable-background:accumulate"
       id="path6680"
       sodipodi:cx="23.945768"
       sodipodi:cy="24.538368"
       sodipodi:rx="21.456448"
       sodipodi:ry="21.456448"
       d="M 45.402216,24.538368 A 21.456448,21.456448 0 1 1 2.4893208,24.538368 A 21.456448,21.456448 0 1 1 45.402216,24.538368 z"
       transform="matrix(1.0253328,0,0,0.4660604,-0.55238,26.563638)" />
    <path
       style="opacity:1;color:#000000;fill:url(#linearGradient6712);fill-opacity:1;fill-rule:evenodd;stroke:#888a85;stroke-width:1.00000036px;stroke-linecap:round;stroke-linejoin:miter;marker:none;marker-start:none;marker-mid:none;marker-end:none;stroke-miterlimit:4;stroke-dasharray:none;stroke-dashoffset:0;stroke-opacity:1;visibility:visible;display:inline;overflow:visible;enable-background:accumulate"
       d="M 24 2.5 C 12.132 2.5 2.5 12.132001 2.5 24 C 2.5 35.868 12.132 45.499999 24 45.5 C 35.868 45.5 45.5 35.868001 45.5 24 C 45.5 12.132 35.868 2.5 24 2.5 z M 24 19.5 C 26.484001 19.5 28.5 21.516 28.5 24 C 28.5 26.484001 26.484 28.5 24 28.5 C 21.516 28.500001 19.5 26.484 19.5 24 C 19.5 21.516 21.516 19.5 24 19.5 z "
       id="path6682" />
    <path
       style="opacity:1;color:#000000;fill:#000000;fill-opacity:0.1081081;fill-rule:evenodd;stroke:none;stroke-width:2.52428889px;stroke-linecap:round;stroke-linejoin:miter;marker:none;marker-start:none;marker-mid:none;marker-end:none;stroke-miterlimit:4;stroke-dasharray:none;stroke-dashoffset:0;stroke-opacity:1;visibility:visible;display:inline;overflow:visible;enable-background:accumulate"
       d="M 24 15 C 19.031999 15 15 19.031999 15 24 C 15 28.968001 19.031999 32.999999 24 33 C 28.968001 33 32.999999 28.968 33 24 C 33 19.031999 28.968001 15 24 15 z M 24 18.9375 C 26.799429 18.9375 29.0625 21.200571 29.0625 24 C 29.062499 26.799429 26.799429 29.0625 24 29.0625 C 21.200572 29.062501 18.9375 26.799429 18.9375 24 C 18.9375 21.200571 21.200571 18.9375 24 18.9375 z "
       id="path6684" />
    <path
       sodipodi:type="arc"
       style="opacity:1;color:#000000;fill:none;fill-opacity:1;fill-rule:evenodd;stroke:#ffffff;stroke-width:1.04665625px;stroke-linecap:round;stroke-linejoin:miter;marker:none;marker-start:none;marker-mid:none;marker-end:none;stroke-miterlimit:4;stroke-dasharray:none;stroke-dashoffset:0;stroke-opacity:0.56756759;visibility:visible;display:inline;overflow:visible;enable-background:accumulate"
       id="path6686"
       sodipodi:cx="23.945768"
       sodipodi:cy="24.538368"
       sodipodi:rx="21.456448"
       sodipodi:ry="21.456448"
       d="M 45.402216,24.538368 A 21.456448,21.456448 0 1 1 2.4893208,24.538368 A 21.456448,21.456448 0 1 1 45.402216,24.538368 z"
       transform="matrix(0.9554238,0,0,0.9554238,1.12164,0.5554587)" />
    <path
       transform="matrix(0.2563332,0,0,0.2563332,17.86191,17.710003)"
       d="M 45.402216,24.538368 A 21.456448,21.456448 0 1 1 2.4893208,24.538368 A 21.456448,21.456448 0 1 1 45.402216,24.538368 z"
       sodipodi:ry="21.456448"
       sodipodi:rx="21.456448"
       sodipodi:cy="24.538368"
       sodipodi:cx="23.945768"
       id="path6688"
       style="opacity:1;color:#000000;fill:none;fill-opacity:1;fill-rule:evenodd;stroke:#ffffff;stroke-width:3.90117431px;stroke-linecap:round;stroke-linejoin:miter;marker:none;marker-start:none;marker-mid:none;marker-end:none;stroke-miterlimit:4;stroke-dasharray:none;stroke-dashoffset:0;stroke-opacity:0.42342344;visibility:visible;display:inline;overflow:visible;enable-background:accumulate"
       sodipodi:type="arc" />
    <path
       sodipodi:nodetypes="cccccccccc"
       id="path6692"
       d="M 44.066288,18.000471 C 42.894348,14.151911 40.52885,10.663033 37.55037,8.1063947 C 35.35677,10.724751 31.5624,15.407012 27.38396,20.303224 C 28.06637,20.857875 28.59202,21.596203 28.84381,22.462581 L 44.066288,18.000471 z M 20.71333,27.756685 C 20.16706,27.261807 19.73893,26.644957 19.49679,25.931877 L 3.97021,30.648272 C 5.18652,34.332428 7.40663,37.554773 10.29622,40.015624 C 12.73414,37.179107 16.22447,32.996628 20.71333,27.756685 z"
       style="fill:#ffffff;fill-opacity:0.28828831;fill-rule:evenodd;stroke:none;stroke-width:1px;stroke-linecap:butt;stroke-linejoin:miter;stroke-opacity:1" />
    <path
       style="fill:#000000;fill-opacity:0.04054057;fill-rule:evenodd;stroke:none;stroke-width:1px;stroke-linecap:butt;stroke-linejoin:miter;stroke-opacity:1"
       d="M 17.79314,4.1733377 C 13.94458,5.3452807 10.55664,7.5816877 8,10.560169 C 10.61836,12.753772 15.72538,17.087281 20.62159,21.265714 C 21.17624,20.583312 21.91457,20.057662 22.78095,19.805867 L 17.79314,4.1733377 z M 27.22132,26.922621 C 26.72644,27.468896 26.10959,27.897026 25.39651,28.13916 L 30.44515,44.04541 C 34.1293,42.829106 37.35165,40.608993 39.8125,37.719406 C 36.97598,35.281485 32.46126,31.411485 27.22132,26.922621 z"
       id="path6694" />
    <path
       inkscape:transform-center-y="-3.9217216"
       inkscape:transform-center-x="-11.459592"
       style="fill:none;fill-opacity:1;fill-rule:evenodd;stroke:#ffffff;stroke-width:1px;stroke-linecap:butt;stroke-linejoin:miter;stroke-opacity:0.36486487"
       d="M 19.08694,27.973857 L 7.04454,35.135785 M 37.31763,9.0359917 L 28.37057,19.799305"
       id="path6696"
       sodipodi:nodetypes="cccc" />
    <path
       style="opacity:1;fill:url(#linearGradient5917);fill-opacity:1.0;stroke:#ce5c00;stroke-width:0.99999988;stroke-opacity:1"
       d="M 8.5 17.5 L 8.5 20.5 L 2 20.5 C 1.168997 20.5 0.5 21.168997 0.5 22 L 0.5 26 C 0.5 26.831003 1.168997 27.5 2 27.5 L 8.5 27.5 L 8.5 30.53125 L 16.5 24.03125 L 8.5 17.5 z "
       id="rect4933" />
    <path
       id="path5909"
       d="M 9.5,19.669312 L 9.5,21.5 L 2.1504997,21.5 C 1.3194967,21.5 1.5,22.168997 1.5,23 L 1.5,25 C 1.5,25.831003 1.3759341,26.5 2.2069371,26.5 L 9.5,26.5 L 9.5,28.404266 L 14.907407,24.03125 L 9.5,19.669312 z "
       style="opacity:1;fill:none;fill-opacity:1;stroke:#ffffff;stroke-width:0.99999988;stroke-opacity:0.31531531"
       sodipodi:nodetypes="cccccccccc" />
  </g>
</svg>
