<?xml version="1.0" encoding="UTF-8" standalone="no"?>
<!-- Created with Inkscape (http://www.inkscape.org/) -->
<svg
   xmlns:dc="http://purl.org/dc/elements/1.1/"
   xmlns:cc="http://web.resource.org/cc/"
   xmlns:rdf="http://www.w3.org/1999/02/22-rdf-syntax-ns#"
   xmlns:svg="http://www.w3.org/2000/svg"
   xmlns="http://www.w3.org/2000/svg"
   xmlns:xlink="http://www.w3.org/1999/xlink"
   xmlns:sodipodi="http://sodipodi.sourceforge.net/DTD/sodipodi-0.dtd"
   xmlns:inkscape="http://www.inkscape.org/namespaces/inkscape"
   width="32"
   height="32"
   id="svg5615"
   sodipodi:version="0.32"
   inkscape:version="0.45.1"
   sodipodi:docbase="/home/cornelius/Desktop/GFX/ikony/brasero/Final/32x32/actions"
   sodipodi:docname="media-optical-audio-new.svg"
   inkscape:output_extension="org.inkscape.output.svg.inkscape"
   version="1.0"
   inkscape:export-filename="/home/cornelius/GFX/ikony/brasero/Final/32x32/actions/disc-burn.png"
   inkscape:export-xdpi="90"
   inkscape:export-ydpi="90">
  <defs
     id="defs5617">
    <radialGradient
       inkscape:collect="always"
       xlink:href="#linearGradient2911"
       id="radialGradient5364"
       gradientUnits="userSpaceOnUse"
       gradientTransform="matrix(0.957284,-0.174215,8.774306e-2,0.339933,-2.536944,26.0587)"
       cx="10.702267"
       cy="34.716267"
       fx="10.702267"
       fy="34.716267"
       r="7.6234951" />
    <linearGradient
       id="linearGradient2911"
       inkscape:collect="always">
      <stop
         id="stop2913"
         offset="0"
         style="stop-color:#eeeeec;stop-opacity:1;" />
      <stop
         id="stop2915"
         offset="1"
         style="stop-color:#eeeeec;stop-opacity:0;" />
    </linearGradient>
    <radialGradient
       inkscape:collect="always"
       xlink:href="#linearGradient2911"
       id="radialGradient5366"
       gradientUnits="userSpaceOnUse"
       gradientTransform="matrix(0.957284,-0.174215,8.774306e-2,0.339933,-2.536944,26.0587)"
       cx="10.702267"
       cy="34.716267"
       fx="10.702267"
       fy="34.716267"
       r="7.6234951" />
    <linearGradient
       inkscape:collect="always"
       id="linearGradient6343">
      <stop
         style="stop-color:#fce94f;stop-opacity:1;"
         offset="0"
         id="stop6345" />
      <stop
         style="stop-color:#fce94f;stop-opacity:0;"
         offset="1"
         id="stop6347" />
    </linearGradient>
    <radialGradient
       inkscape:collect="always"
       xlink:href="#linearGradient6343"
       id="radialGradient6349"
       cx="36.619595"
       cy="7.2211123"
       fx="36.619595"
       fy="7.2211123"
       r="5.1705894"
       gradientUnits="userSpaceOnUse" />
    <linearGradient
       inkscape:collect="always"
       id="linearGradient6672">
      <stop
         style="stop-color:#ffffff;stop-opacity:1;"
         offset="0"
         id="stop6674" />
      <stop
         style="stop-color:#ffffff;stop-opacity:0;"
         offset="1"
         id="stop6676" />
    </linearGradient>
    <linearGradient
       inkscape:collect="always"
       id="linearGradient6565">
      <stop
         style="stop-color:#000000;stop-opacity:1;"
         offset="0"
         id="stop6567" />
      <stop
         style="stop-color:#000000;stop-opacity:0;"
         offset="1"
         id="stop6569" />
    </linearGradient>
    <radialGradient
       inkscape:collect="always"
       xlink:href="#linearGradient6565"
       id="radialGradient7284"
       gradientUnits="userSpaceOnUse"
       cx="23.945768"
       cy="24.538368"
       fx="23.945768"
       fy="24.538368"
       r="21.456448" />
    <linearGradient
       inkscape:collect="always"
       id="linearGradient5912">
      <stop
         style="stop-color:#ebebe8;stop-opacity:1"
         offset="0"
         id="stop5914" />
      <stop
         style="stop-color:#eeeeec;stop-opacity:1"
         offset="1"
         id="stop5916" />
    </linearGradient>
    <linearGradient
       inkscape:collect="always"
       xlink:href="#linearGradient5912"
       id="linearGradient7286"
       gradientUnits="userSpaceOnUse"
       x1="9.2952967"
       y1="5.6606879"
       x2="13.387451"
       y2="33.641579"
       gradientTransform="matrix(0.6772076,0,0,0.6757875,-0.246726,-1.5827234)" />
    <radialGradient
       inkscape:collect="always"
       xlink:href="#linearGradient6565"
       id="radialGradient6710"
       gradientUnits="userSpaceOnUse"
       cx="23.945768"
       cy="24.538368"
       fx="23.945768"
       fy="24.538368"
       r="21.456448" />
    <linearGradient
       inkscape:collect="always"
       xlink:href="#linearGradient5912"
       id="linearGradient6712"
       gradientUnits="userSpaceOnUse"
       x1="9.2952967"
       y1="5.6606879"
       x2="13.387451"
       y2="33.641579" />
    <linearGradient
       inkscape:collect="always"
       xlink:href="#linearGradient6672"
       id="linearGradient6714"
       gradientUnits="userSpaceOnUse"
       x1="43.205132"
       y1="37.46365"
       x2="28.453279"
       y2="37.46545" />
    <radialGradient
       inkscape:collect="always"
       xlink:href="#linearGradient6565"
       id="radialGradient6746"
       gradientUnits="userSpaceOnUse"
       cx="23.945768"
       cy="24.538368"
       fx="23.945768"
       fy="24.538368"
       r="21.456448" />
    <linearGradient
       inkscape:collect="always"
       xlink:href="#linearGradient5912"
       id="linearGradient6748"
       gradientUnits="userSpaceOnUse"
       x1="9.2952967"
       y1="5.6606879"
       x2="13.387451"
       y2="33.641579" />
    <linearGradient
       inkscape:collect="always"
       xlink:href="#linearGradient6672"
       id="linearGradient6753"
       gradientUnits="userSpaceOnUse"
       x1="43.281902"
       y1="37.463642"
       x2="28.477448"
       y2="37.465446"
       gradientTransform="matrix(0.6345368,0,0,0.5552197,-43.62219,-25.574755)" />
    <linearGradient
       inkscape:collect="always"
       xlink:href="#linearGradient5912"
       id="linearGradient6789"
       gradientUnits="userSpaceOnUse"
       x1="9.2952967"
       y1="5.6606879"
       x2="13.387451"
       y2="33.641579" />
    <linearGradient
       inkscape:collect="always"
       xlink:href="#linearGradient6672"
       id="linearGradient6815"
       gradientUnits="userSpaceOnUse"
       gradientTransform="matrix(0.5044,0,0,0.789146,-3.3886096,-9.1055033)"
       x1="43.281902"
       y1="37.463642"
       x2="28.477448"
       y2="37.465446" />
    <linearGradient
       inkscape:collect="always"
       xlink:href="#linearGradient6672"
       id="linearGradient6830"
       gradientUnits="userSpaceOnUse"
       gradientTransform="matrix(0.5044,0,0,0.789146,-3.3886096,-9.1055033)"
       x1="43.281902"
       y1="37.463642"
       x2="28.477448"
       y2="37.465446" />
  </defs>
  <sodipodi:namedview
     id="base"
     pagecolor="#ffffff"
     bordercolor="#666666"
     borderopacity="1.0"
     inkscape:pageopacity="0.0"
     inkscape:pageshadow="2"
     inkscape:zoom="23.625"
     inkscape:cx="17.799739"
     inkscape:cy="14.066691"
     inkscape:current-layer="layer1"
     showgrid="true"
     inkscape:grid-bbox="true"
     inkscape:document-units="px"
     inkscape:window-width="872"
     inkscape:window-height="782"
     inkscape:window-x="3"
     inkscape:window-y="50"
     width="32px"
     height="32px"
     inkscape:showpageshadow="false"
     showborder="true" />
  <metadata
     id="metadata5620">
    <rdf:RDF>
      <cc:Work
         rdf:about="">
        <dc:format>image/svg+xml</dc:format>
        <dc:type
           rdf:resource="http://purl.org/dc/dcmitype/StillImage" />
      </cc:Work>
    </rdf:RDF>
  </metadata>
  <g
     id="layer1"
     inkscape:label="Layer 1"
     inkscape:groupmode="layer">
    <path
       transform="matrix(0.7040938,0,0,0.3201913,-0.693494,17.032122)"
       d="M 45.402216,24.538368 A 21.456448,21.456448 0 1 1 2.4893208,24.538368 A 21.456448,21.456448 0 1 1 45.402216,24.538368 z"
       sodipodi:ry="21.456448"
       sodipodi:rx="21.456448"
       sodipodi:cy="24.538368"
       sodipodi:cx="23.945768"
       id="path7264"
       style="opacity:0.38864632;color:#000000;fill:url(#radialGradient7284);fill-opacity:1;fill-rule:evenodd;stroke:none;stroke-width:1.50133264px;stroke-linecap:round;stroke-linejoin:miter;marker:none;marker-start:none;marker-mid:none;marker-end:none;stroke-miterlimit:4;stroke-dasharray:none;stroke-dashoffset:0;stroke-opacity:1;visibility:visible;display:inline;overflow:visible;enable-background:accumulate"
       sodipodi:type="arc" />
    <path
       style="opacity:1;color:#000000;fill:url(#linearGradient7286);fill-opacity:1;fill-rule:evenodd;stroke:#888a85;stroke-width:1.00000024px;stroke-linecap:round;stroke-linejoin:miter;marker:none;marker-start:none;marker-mid:none;marker-end:none;stroke-miterlimit:4;stroke-dasharray:none;stroke-dashoffset:0;stroke-opacity:1;visibility:visible;display:inline;overflow:visible;enable-background:accumulate"
       d="M 15.96875 0.5 C 7.9479309 0.5 1.4375 6.9960006 1.4375 15 C 1.4375 23.003999 7.9479311 29.5 15.96875 29.5 C 23.989569 29.5 30.5 23.004 30.5 15 C 30.5 6.9960005 23.989569 0.49999997 15.96875 0.5 z M 16 11.5 C 17.932 11.5 19.5 13.068 19.5 15 C 19.5 16.931999 17.932 18.5 16 18.5 C 14.068 18.500001 12.5 16.932 12.5 15 C 12.5 13.068 14.068 11.5 16 11.5 z "
       id="path7266" />
    <path
       style="opacity:1;color:#000000;fill:#000000;fill-opacity:0.1081081;fill-rule:evenodd;stroke:none;stroke-width:2.52428889px;stroke-linecap:round;stroke-linejoin:miter;marker:none;marker-start:none;marker-mid:none;marker-end:none;stroke-miterlimit:4;stroke-dasharray:none;stroke-dashoffset:0;stroke-opacity:1;visibility:visible;display:inline;overflow:visible;enable-background:accumulate"
       d="M 16 8 C 12.136001 8 9.0000004 11.136001 9 15 C 9 18.863999 12.136001 21.999999 16 22 C 19.863999 22 23.000001 18.864 23 15 C 23 11.136001 19.863999 7.9999999 16 8 z M 16 10.9375 C 18.235746 10.9375 20.0625 12.764254 20.0625 15 C 20.062501 17.235747 18.235746 19.0625 16 19.0625 C 13.764254 19.0625 11.9375 17.235746 11.9375 15 C 11.9375 12.764254 13.764254 10.9375 16 10.9375 z "
       id="path7270" />
    <path
       transform="matrix(0.6291815,0,0,0.6291816,0.933765,-0.4390875)"
       d="M 45.402216,24.538368 A 21.456448,21.456448 0 1 1 2.4893208,24.538368 A 21.456448,21.456448 0 1 1 45.402216,24.538368 z"
       sodipodi:ry="21.456448"
       sodipodi:rx="21.456448"
       sodipodi:cy="24.538368"
       sodipodi:cx="23.945768"
       id="path7272"
       style="opacity:1;color:#000000;fill:none;fill-opacity:1;fill-rule:evenodd;stroke:#ffffff;stroke-width:1.58936679px;stroke-linecap:round;stroke-linejoin:miter;marker:none;marker-start:none;marker-mid:none;marker-end:none;stroke-miterlimit:4;stroke-dasharray:none;stroke-dashoffset:0;stroke-opacity:0.56756759;visibility:visible;display:inline;overflow:visible;enable-background:accumulate"
       sodipodi:type="arc" />
    <path
       sodipodi:type="arc"
       style="opacity:1;color:#000000;fill:none;fill-opacity:1;fill-rule:evenodd;stroke:#ffffff;stroke-width:4.76810408px;stroke-linecap:round;stroke-linejoin:miter;marker:none;marker-start:none;marker-mid:none;marker-end:none;stroke-miterlimit:4;stroke-dasharray:none;stroke-dashoffset:0;stroke-opacity:0.42342344;visibility:visible;display:inline;overflow:visible;enable-background:accumulate"
       id="path7274"
       sodipodi:cx="23.945768"
       sodipodi:cy="24.538368"
       sodipodi:rx="21.456448"
       sodipodi:ry="21.456448"
       d="M 45.402216,24.538368 A 21.456448,21.456448 0 1 1 2.4893208,24.538368 A 21.456448,21.456448 0 1 1 45.402216,24.538368 z"
       transform="matrix(0.2097272,0,0,0.2097271,10.977922,9.8536381)" />
    <path
       style="fill:#ffffff;fill-opacity:0.28828831;fill-rule:evenodd;stroke:none;stroke-width:1px;stroke-linecap:butt;stroke-linejoin:miter;stroke-opacity:1"
       d="M 29.474879,11.30262 C 28.699786,8.7560955 27.135301,6.4475649 25.165408,4.7558814 C 23.714614,6.4884027 21.205111,9.5865746 18.441591,12.826313 C 18.892921,13.193316 19.240573,13.681855 19.407101,14.255123 L 29.474879,11.30262 z M 14.0298,17.75814 C 13.66851,17.430688 13.385355,17.022528 13.225209,16.550696 L 2.956308,19.671453 C 3.760746,22.109195 5.229073,24.241367 7.140177,25.869668 C 8.752558,23.992794 11.060978,21.225319 14.0298,17.75814 z"
       id="path7278"
       sodipodi:nodetypes="cccccccccc" />
    <path
       id="path7280"
       d="M 11.886315,2 C 9.209202,2.7935997 6.852501,4.3080178 5.074066,6.3249433 C 6.895435,7.810376 10.447951,10.74488 13.853826,13.574371 C 14.239648,13.112272 14.753242,12.756319 15.355908,12.585812 L 11.886315,2 z M 18.444693,17.405034 C 18.100448,17.774953 17.671358,18.064868 17.175329,18.228833 L 20.687236,29 C 23.249984,28.176361 25.491497,26.672976 27.2033,24.716247 C 25.230176,23.06537 22.089672,20.44474 18.444693,17.405034 z"
       style="fill:#000000;fill-opacity:0.04054057;fill-rule:evenodd;stroke:none;stroke-width:1px;stroke-linecap:butt;stroke-linejoin:miter;stroke-opacity:1" />
    <path
       sodipodi:nodetypes="cccc"
       id="path7282"
       d="M 12.829273,18.000966 L 4.559784,22.921331 M 25.348247,4.9903365 L 19.204321,12.384912"
       style="fill:none;fill-opacity:1;fill-rule:evenodd;stroke:#ffffff;stroke-width:1px;stroke-linecap:butt;stroke-linejoin:miter;stroke-opacity:0.36486487"
       inkscape:transform-center-x="-7.8692762"
       inkscape:transform-center-y="-2.6942884" />
    <path
       sodipodi:type="arc"
       style="opacity:1;color:#000000;fill:url(#radialGradient6349);fill-opacity:1;fill-rule:evenodd;stroke:none;stroke-width:1.01691592;stroke-linecap:square;stroke-linejoin:round;marker:none;marker-start:none;marker-mid:none;marker-end:none;stroke-miterlimit:4;stroke-dasharray:none;stroke-dashoffset:0;stroke-opacity:1;visibility:visible;display:inline;overflow:visible;enable-background:accumulate"
       id="path6341"
       sodipodi:cx="36.619595"
       sodipodi:cy="7.2211123"
       sodipodi:rx="5.1705894"
       sodipodi:ry="5.1705894"
       d="M 41.790184 7.2211123 A 5.1705894 5.1705894 0 1 1  31.449005,7.2211123 A 5.1705894 5.1705894 0 1 1  41.790184 7.2211123 z"
       transform="matrix(1.1588744,0,0,1.1588742,-17.429574,-1.3762979)" />
    <path
       sodipodi:type="star"
       style="opacity:1;color:#000000;fill:#ffffff;fill-opacity:1;fill-rule:evenodd;stroke:#fce94f;stroke-width:1.01846921;stroke-linecap:square;stroke-linejoin:round;marker:none;marker-start:none;marker-mid:none;marker-end:none;stroke-miterlimit:4;stroke-dasharray:none;stroke-dashoffset:0;stroke-opacity:1;visibility:visible;display:inline;overflow:visible;enable-background:accumulate"
       id="path5368"
       sodipodi:sides="5"
       sodipodi:cx="34.55793"
       sodipodi:cy="3.5622063"
       sodipodi:r1="4.6588063"
       sodipodi:r2="2.3294032"
       sodipodi:arg1="1.5707963"
       sodipodi:arg2="2.1991148"
       inkscape:flatsided="false"
       inkscape:rounded="0"
       inkscape:randomized="0"
       d="M 34.55793,8.2210126 L 33.188741,5.4467331 L 30.127142,5.0018567 L 32.342536,2.8423812 L 31.819552,-0.20684715 L 34.55793,1.2328031 L 37.296308,-0.20684729 L 36.773324,2.842381 L 38.988718,5.0018565 L 35.927119,5.4467329 L 34.55793,8.2210126 z "
       transform="matrix(1.0156206,0,0,0.9492327,-10.097746,3.6963463)" />
    <path
       sodipodi:nodetypes="ccccsssccccssccc"
       id="rect2931"
       d="M 30.955296,13.502503 L 18.071581,14.573457 C 17.772313,14.602137 17.528943,14.86829 17.528943,15.170909 L 17.545901,27.652052 C 16.9811,27.565952 16.452707,27.53677 15.77863,27.617912 C 13.684718,27.869965 12.396922,28.994244 12.50562,30.026334 C 12.614319,31.058424 14.413661,31.695203 16.507572,31.443149 C 18.601484,31.191098 20.587492,30.495923 20.478796,29.463832 L 20.478796,17.682552 L 28.518363,16.580562 L 28.513434,26.627116 C 26.484226,26.463747 23.389117,27.251542 23.600919,29.122892 C 23.723875,30.209257 25.805584,30.648048 27.898032,30.395994 C 29.990481,30.143942 31.601627,29.089485 31.493006,28.057395 L 31.497934,13.997534 C 31.497934,13.694917 31.254565,13.473822 30.955296,13.502503 z "
       style="color:#000000;fill:#f57900;fill-opacity:1;fill-rule:evenodd;stroke:#ce5c00;stroke-width:1.00000036;stroke-linecap:butt;stroke-linejoin:miter;marker:none;marker-start:none;marker-mid:none;marker-end:none;stroke-miterlimit:4;stroke-dasharray:none;stroke-dashoffset:0;stroke-opacity:1;visibility:visible;display:inline;overflow:visible" />
    <path
       transform="matrix(0.4349932,-5.0244268e-2,5.93984e-2,0.5411743,8.8982239,10.185941)"
       d="M 20.285126 37.128235 A 7.6234951 2.6516504 0 1 1  5.0381355,37.128235 A 7.6234951 2.6516504 0 1 1  20.285126 37.128235 z"
       sodipodi:ry="2.6516504"
       sodipodi:rx="7.6234951"
       sodipodi:cy="37.128235"
       sodipodi:cx="12.661631"
       id="path2901"
       style="opacity:0.69955157;color:#000000;fill:url(#radialGradient5364);fill-opacity:1;fill-rule:evenodd;stroke:none;stroke-width:1;stroke-linecap:butt;stroke-linejoin:miter;marker:none;marker-start:none;marker-mid:none;marker-end:none;stroke-miterlimit:4;stroke-dasharray:none;stroke-dashoffset:0;stroke-opacity:1;visibility:visible;display:inline;overflow:visible"
       sodipodi:type="arc" />
    <path
       sodipodi:type="arc"
       style="opacity:0.69955157;color:#000000;fill:url(#radialGradient5366);fill-opacity:1;fill-rule:evenodd;stroke:none;stroke-width:1;stroke-linecap:butt;stroke-linejoin:miter;marker:none;marker-start:none;marker-mid:none;marker-end:none;stroke-miterlimit:4;stroke-dasharray:none;stroke-dashoffset:0;stroke-opacity:1;visibility:visible;display:inline;overflow:visible"
       id="path2942"
       sodipodi:cx="12.661631"
       sodipodi:cy="37.128235"
       sodipodi:rx="7.6234951"
       sodipodi:ry="2.6516504"
       d="M 20.285126 37.128235 A 7.6234951 2.6516504 0 1 1  5.0381355,37.128235 A 7.6234951 2.6516504 0 1 1  20.285126 37.128235 z"
       transform="matrix(0.4381893,-5.0244284e-2,5.9834806e-2,0.5411745,20.013824,8.7003839)" />
    <path
       style="color:#000000;fill:none;fill-opacity:1;fill-rule:evenodd;stroke:#ffffff;stroke-width:1.00000036;stroke-linecap:butt;stroke-linejoin:miter;marker:none;marker-start:none;marker-mid:none;marker-end:none;stroke-miterlimit:4;stroke-dasharray:none;stroke-dashoffset:0;stroke-opacity:0.27477476;visibility:visible;display:inline;overflow:visible"
       d="M 30.161691,14.518088 L 18.99516,15.488255 C 18.493115,15.527692 18.516709,15.595506 18.53424,16.157049 L 18.554778,28.637131 C 16.486874,28.384517 13.613583,28.817824 13.526767,29.820651 C 13.450583,30.700667 17.768079,30.572851 19.428529,29.495036 L 19.472441,16.708208 L 29.507172,15.67866 L 29.467412,27.667752 C 27.487458,27.427761 24.267169,27.876915 24.753494,28.920149 C 24.932279,29.460908 27.142439,29.447471 28.215454,29.319368 C 29.051865,29.219287 30.25129,28.710076 30.456838,27.657227 L 30.491899,15.06726 C 30.491899,14.412266 30.581929,14.490333 30.161691,14.518088 z "
       id="path2962"
       sodipodi:nodetypes="ccccscccccsccc" />
  </g>
</svg>
