<?xml version="1.0" encoding="UTF-8"?>
<svg width="64" height="64" version="1.1" viewBox="0 -64 16 6.9375" xmlns="http://www.w3.org/2000/svg" xmlns:cc="http://creativecommons.org/ns#" xmlns:dc="http://purl.org/dc/elements/1.1/" xmlns:rdf="http://www.w3.org/1999/02/22-rdf-syntax-ns#">
  <metadata>
    <rdf:RDF>
      <cc:Work rdf:about="">
        <dc:format>image/svg+xml</dc:format>
        <dc:type rdf:resource="http://purl.org/dc/dcmitype/StillImage"/>
      </cc:Work>
    </rdf:RDF>
  </metadata>
  <g transform="matrix(.03125 0 0 -.03125 0 -54.5)">
    <path d="m6 171c1 0 2-1 2-2l4-29-4-28c0-1-1-2-2-2s-2 1-2 2l-4 28 4 29c0 1 1 2 2 2zm21 15 6-46-6-45c0-1-1-2-2-2s-2 1-2 2l-5 45 5 46c0 1 1 2 2 2s2-1 2-2zm79 43c2 0 4-2 4-4l4-85-4-54c0-2-2-4-4-4s-4 2-4 4l-4 54 4 85c0 2 2 4 4 4zm-41-30c2 0 3-1 3-3l5-56-5-54c0-2-1-3-3-3s-3 1-3 3l-4 54 4 56c0 2 1 3 3 3zm83-117c-3 0 0 0 0 0-3 0-5 2-5 5l-3 53 3 113c0 3 2 5 5 5s5-2 5-5l3-113-3-53c0-3-2-5-5-5zm85 0c-4 0 0 0 0 0-4 0-6 2-6 6l-3 52 3 130c0 4 2 7 6 7s7-3 7-7l3-130-3-52c0-4-3-6-7-6zm-43 0c-3 0 0 0 0 0-3 0-5 3-5 6l-3 53 3 113c0 3 2 6 5 6s6-3 6-6l3-113-3-53c0-3-3-6-6-6zm-105 0c-2 0 0 0 0 0-2 0-3 2-3 4l-4 54 4 52c0 2 1 4 3 4s4-2 4-4l5-52-5-54c0-2-2-4-4-4zm-40 3c-1 0 0 0 0 0-1 0-3 2-3 3l-5 52 5 55c0 1 2 3 3 3s2-2 2-3l6-55-6-52c0-1-1-3-2-3zm167 171c3 0 6-3 6-6l3-109-3-53c0-3-3-6-6-6s-6 3-6 6l-3 53 3 109c0 3 3 6 6 6zm-85-174c-2 0 0 0 0 0-2 0-5 2-5 4l-3 54 3 104c0 2 3 5 5 5s4-3 4-5l4-104-4-54c0-2-2-4-4-4zm47 5c0-3-2-5-5-5s-5 2-5 5l-3 54 3 116c0 3 2 5 5 5s5-2 5-5l4-116-4-54zm81 202c4 0 7-3 7-7l3-142-3-51c0-4-3-7-7-7s-7 3-7 7l-3 51 3 142c0 4 3 7 7 7zm194-81c35 0 63-28 63-63s-28-63-63-63h-175c-4 0-6 3-6 7v200c0 4 1 5 6 7 12 5 26 8 40 8 58 0 106-44 111-101 8 3 15 5 24 5z" fill="currentColor"/>
  </g>
</svg>
