/* XPM */
static const char * volume_mute_xpm[] = {
"24 24 2 1",
" 	c None",
".	c #F91A1A",
"                        ",
"                        ",
"                        ",
"                        ",
"                        ",
"             .          ",
"            ..          ",
"           ..           ",
"          ..            ",
"         ..             ",
"        ..              ",
"       ...              ",
"       ..               ",
"      ..                ",
"     ..                 ",
"    ..                  ",
"   ...                  ",
"   ..                   ",
"  ..                    ",
"                        ",
"                        ",
"                        ",
"                        ",
"                        "};
