<svg xmlns="http://www.w3.org/2000/svg" width="16" height="16" version="1.0"><defs><linearGradient id="a"><stop offset="0" stop-color="#d5d3cf"/><stop offset="1" stop-color="#f6f5f4"/></linearGradient><linearGradient id="b"><stop offset="0" stop-color="#d5d3cf"/><stop offset="1" stop-color="#949390"/></linearGradient><linearGradient id="c"><stop offset="0" stop-color="#9a9996"/><stop offset="1" stop-color="#77767b"/></linearGradient></defs><path style="marker:none" d="M 4 1 C 2.355 1 1 2.355 1 4 L 1 12 C 1 13.645 2.355 15 4 15 L 12 15 C 13.645 15 15 13.645 15 12 L 15 4 C 15 2.355 13.645 1 12 1 L 4 1 z M 4 3 L 12 3 C 12.571 3 13 3.429 13 4 L 13 12 C 13 12.571 12.571 13 12 13 L 4 13 C 3.429 13 3 12.571 3 12 L 3 4 C 3 3.429 3.429 3 4 3 z M 8 4 A 4 4 0 0 0 4 8 A 4 4 0 0 0 8 12 A 4 4 0 0 0 12 8 A 4 4 0 0 0 8 4 z M 8 5 A 3 3 0 0 1 11 8 A 3 3 0 0 1 8 11 A 3 3 0 0 1 5 8 A 3 3 0 0 1 8 5 z M 8 6.5 C 7.25 6.5 6.5 7 6.5 8 C 6.5 10 9.5 10 9.5 8 C 9.5 7 8.75 6.5 8 6.5 z"/></svg>
