<?xml version="1.0" encoding="UTF-8" standalone="no"?>
<!-- Created with Inkscape (http://www.inkscape.org/) -->

<svg
   xmlns:dc="http://purl.org/dc/elements/1.1/"
   xmlns:cc="http://creativecommons.org/ns#"
   xmlns:rdf="http://www.w3.org/1999/02/22-rdf-syntax-ns#"
   xmlns:svg="http://www.w3.org/2000/svg"
   xmlns="http://www.w3.org/2000/svg"
   xmlns:sodipodi="http://sodipodi.sourceforge.net/DTD/sodipodi-0.dtd"
   xmlns:inkscape="http://www.inkscape.org/namespaces/inkscape"
   version="1.1"
   width="16"
   height="16.000496"
   id="svg7384"
   inkscape:version="0.47pre4 r22446"
   sodipodi:docname="rhythmbox-symbolic.svg">
  <metadata
     id="metadata14">
    <rdf:RDF>
      <cc:Work
         rdf:about="">
        <dc:format>image/svg+xml</dc:format>
        <dc:type
           rdf:resource="http://purl.org/dc/dcmitype/StillImage" />
      </cc:Work>
    </rdf:RDF>
  </metadata>
  <sodipodi:namedview
     pagecolor="#ffffff"
     bordercolor="#666666"
     borderopacity="1"
     objecttolerance="10"
     gridtolerance="10"
     guidetolerance="10"
     inkscape:pageopacity="0"
     inkscape:pageshadow="2"
     inkscape:window-width="788"
     inkscape:window-height="635"
     id="namedview12"
     showgrid="false"
     showborder="false"
     inkscape:snap-bbox="true"
     inkscape:zoom="1"
     inkscape:cx="11.752922"
     inkscape:cy="1.8024515"
     inkscape:window-x="0"
     inkscape:window-y="25"
     inkscape:window-maximized="0"
     inkscape:current-layer="svg7384">
    <inkscape:grid
       type="xygrid"
       id="grid2822"
       empspacing="5"
       visible="true"
       enabled="true"
       snapvisiblegridlinesonly="true" />
  </sodipodi:namedview>
  <title
     id="title9167">Moblin Icon Theme</title>
  <defs
     id="defs7386" />
  <g
     transform="translate(-19.99975,-235.99975)"
     id="layer2" />
  <g
     id="g3919"
     inkscape:label="rhythmbox">
    <path
       style="opacity:1;color:#000000;fill:none;fill-opacity:1;fill-rule:nonzero;stroke:none;stroke-width:1;marker:none;visibility:visible;display:inline;overflow:visible;enable-background:accumulate"
       d="m 0,4.9591064e-4 16,0 0,16.00000008936 -16,0 L 0,4.9591064e-4 z"
       id="rect3877-3" />
    <g
       id="g3890">
      <path
         style="font-size:medium;font-style:normal;font-variant:normal;font-weight:normal;font-stretch:normal;text-indent:0;text-align:start;text-decoration:none;line-height:normal;letter-spacing:normal;word-spacing:normal;text-transform:none;direction:ltr;block-progression:tb;writing-mode:lr-tb;text-anchor:start;color:#000000;fill:#babdb6;fill-opacity:1;stroke:none;stroke-width:2;marker:none;visibility:visible;display:inline;overflow:visible;enable-background:accumulate;font-family:Andale Mono;-inkscape-font-specification:Andale Mono"
         d="M 4,0 C 2.3552972,0 1,1.3552972 1,3 l 0,10 c 0,1.644703 1.3552972,3 3,3 l 7,0 c 1.644703,0 3,-1.355297 3,-3 L 14,3 C 14,1.3552972 12.644703,0 11,0 L 4,0 z m 0,2 7,0 c 0.571297,0 1,0.4287028 1,1 l 0,10 c 0,0.571297 -0.428703,1 -1,1 L 4,14 C 3.4287028,14 3,13.571297 3,13 L 3,3 C 3,2.4287028 3.4287028,2 4,2 z"
         id="rect2824" />
      <path
         style="font-size:medium;font-style:normal;font-variant:normal;font-weight:normal;font-stretch:normal;text-indent:0;text-align:start;text-decoration:none;line-height:normal;letter-spacing:normal;word-spacing:normal;text-transform:none;direction:ltr;block-progression:tb;writing-mode:lr-tb;text-anchor:start;color:#000000;fill:#babdb6;fill-opacity:1;stroke:none;stroke-width:1.00000012;marker:none;visibility:visible;display:inline;overflow:visible;enable-background:accumulate;font-family:Andale Mono;-inkscape-font-specification:Andale Mono"
         d="m 7.5000002,2.9904849 c -1.9270743,0 -3.5,1.5729257 -3.5,3.5 0,1.9270743 1.5729257,3.5 3.5,3.5 1.9270743,0 3.4999998,-1.5729257 3.4999998,-3.5 0,-1.9270743 -1.5729255,-3.5 -3.4999998,-3.5 z m 0,1 c 1.3866342,0 2.4999998,1.1133658 2.4999998,2.5 0,1.3866342 -1.1133656,2.5 -2.4999998,2.5 -1.3866342,0 -2.5,-1.1133658 -2.5,-2.5 0,-1.3866342 1.1133658,-2.5 2.5,-2.5 z"
         id="path3809" />
      <path
         transform="matrix(0.50000067,0,0,0.50000067,3.4999927,3.0002421)"
         style="color:#000000;fill:#babdb6;fill-opacity:1;fill-rule:nonzero;stroke:none;stroke-width:1;marker:none;visibility:visible;display:inline;overflow:visible;enable-background:accumulate"
         d="m 11,7.0004959 c 0,1.6568543 -1.3431458,3.0000001 -3,3.0000001 -1.6568542,0 -3,-1.3431458 -3,-3.0000001 0,-1.6568542 1.3431458,-3 3,-3 1.6568542,0 3,1.3431458 3,3 z"
         id="path2826-1-5-0-1-0-6" />
      <path
         transform="matrix(0.50000001,0,0,0.50000017,5.4999999,8.0002473)"
         style="color:#000000;fill:#babdb6;fill-opacity:1;fill-rule:nonzero;stroke:none;stroke-width:1;marker:none;visibility:visible;display:inline;overflow:visible;enable-background:accumulate"
         d="m 11,7.0004959 c 0,1.6568543 -1.3431458,3.0000001 -3,3.0000001 -1.6568542,0 -3,-1.3431458 -3,-3.0000001 0,-1.6568542 1.3431458,-3 3,-3 1.6568542,0 3,1.3431458 3,3 z"
         id="path2826-1-5-0-1-0-6-5" />
      <path
         style="opacity:0.25;color:#000000;fill:#babdb6;fill-opacity:1;fill-rule:nonzero;stroke:none;stroke-width:1;marker:none;visibility:visible;display:inline;overflow:visible;enable-background:accumulate"
         d="m 4,11.000496 2,0 0,2 -2,0 0,-2 z"
         id="rect3877" />
    </g>
  </g>
</svg>
