<?xml version="1.0" encoding="UTF-8" standalone="no"?>
<!-- Created with Inkscape (http://www.inkscape.org/) -->

<svg
   xmlns:dc="http://purl.org/dc/elements/1.1/"
   xmlns:cc="http://creativecommons.org/ns#"
   xmlns:rdf="http://www.w3.org/1999/02/22-rdf-syntax-ns#"
   xmlns:svg="http://www.w3.org/2000/svg"
   xmlns="http://www.w3.org/2000/svg"
   xmlns:sodipodi="http://sodipodi.sourceforge.net/DTD/sodipodi-0.dtd"
   xmlns:inkscape="http://www.inkscape.org/namespaces/inkscape"
   id="svg2"
   version="1.1"
   inkscape:version="0.48.4 r9939"
   width="65"
   height="67"
   sodipodi:docname="magnatune-icon.svg">
  <metadata
     id="metadata8">
    <rdf:RDF>
      <cc:Work
         rdf:about="">
        <dc:format>image/svg+xml</dc:format>
        <dc:type
           rdf:resource="http://purl.org/dc/dcmitype/StillImage" />
        <dc:title />
      </cc:Work>
    </rdf:RDF>
  </metadata>
  <defs
     id="defs6" />
  <sodipodi:namedview
     pagecolor="#ffffff"
     bordercolor="#666666"
     borderopacity="1"
     objecttolerance="10"
     gridtolerance="10"
     guidetolerance="10"
     inkscape:pageopacity="0"
     inkscape:pageshadow="2"
     inkscape:window-width="1280"
     inkscape:window-height="746"
     id="namedview4"
     showgrid="false"
     inkscape:zoom="6.1757813"
     inkscape:cx="5.5214775"
     inkscape:cy="32.825251"
     inkscape:window-x="0"
     inkscape:window-y="27"
     inkscape:window-maximized="1"
     inkscape:current-layer="svg2" />
  <rect
     style="fill-opacity:1;stroke:none"
     id="rect5207"
     width="6.6503477"
     height="20.48934"
     x="18.777695"
     y="27.631033"
     rx="1.1780093"
     ry="1.144017" />
  <rect
     style="fill-opacity:1;stroke:none"
     id="rect5209"
     width="6.6503477"
     height="32.081989"
     x="29.950281"
     y="16.03838"
     rx="1.1780093"
     ry="1.144017" />
  <rect
     style="fill-opacity:1;stroke:none"
     id="rect5211"
     width="6.6503477"
     height="20.48934"
     x="40.324821"
     y="27.631033"
     rx="1.1780093"
     ry="1.144017" />
  <path
     style="font-size:medium;font-style:normal;font-variant:normal;font-weight:normal;font-stretch:normal;text-indent:0;text-align:start;text-decoration:none;line-height:normal;letter-spacing:normal;word-spacing:normal;text-transform:none;direction:ltr;block-progression:tb;writing-mode:lr-tb;text-anchor:start;baseline-shift:baseline;color:#000000;fill:#000000;fill-opacity:1;stroke:none;stroke-width:5.5;marker:none;visibility:visible;display:inline;overflow:visible;enable-background:accumulate;font-family:Sans;-inkscape-font-specification:Sans"
     d="m 32.505554,1.207602 c -17.889667,0 -32.45987484,14.570208 -32.45987484,32.459875 0,17.889666 14.57020784,32.459874 32.45987484,32.459874 17.827626,0 32.323394,-14.475792 32.423967,-32.28034 a 3.1601268,3.1601268 0 0 0 0.03591,-0.251348 3.1601268,3.1601268 0 0 0 0,-0.07181 3.1601268,3.1601268 0 0 0 0,-0.215442 C 64.770655,15.557474 50.257556,1.207602 32.505554,1.207602 z m 0,6.3196216 c 14.361144,0 25.982684,11.4927174 26.140253,25.8529974 a 3.1601268,3.1601268 0 0 0 0,0.07181 3.1601268,3.1601268 0 0 0 0,0.215442 c 0,14.47429 -11.665963,26.140253 -26.140253,26.140253 -14.474291,0 -26.1402532,-11.665963 -26.1402532,-26.140253 0,-14.474291 11.6659622,-26.1402534 26.1402532,-26.1402534 z"
     id="path2986"
     inkscape:connector-curvature="0" />
</svg>
